<?xml version="1.0" encoding="UTF-8"?>
<!DOCTYPE svg PUBLIC "-//W3C//DTD SVG 1.1//EN" "http://www.w3.org/Graphics/SVG/1.1/DTD/svg11.dtd">
<!-- Creator: CorelDRAW 2020 (64-Bit) -->
<svg xmlns="http://www.w3.org/2000/svg" xml:space="preserve" width="91.5359mm" height="58.1458mm" version="1.1" style="shape-rendering:geometricPrecision; text-rendering:geometricPrecision; image-rendering:optimizeQuality; fill-rule:evenodd; clip-rule:evenodd"
viewBox="0 0 8463.63 5376.3"
 xmlns:xlink="http://www.w3.org/1999/xlink"
 xmlns:xodm="http://www.corel.com/coreldraw/odm/2003">
 <defs>
  <style type="text/css">
   <![CDATA[
    .fil1 {fill:#4809D0}
    .fil0 {fill:white;fill-rule:nonzero}
   ]]>
  </style>
 </defs>
 <g id="Layer_x0020_1">
  <metadata id="CorelCorpID_0Corel-Layer"/>
  <path class="fil0" d="M475.31 2050.8c-211.81,-203.44 -475.31,-456.54 -475.31,-925.52 0,-299.44 133.19,-583.84 337.61,-788.26 203.48,-203.46 486.29,-337.02 787.67,-337.02 452.34,0 687.46,237.06 877.54,428.69l20.68 20.8c50.53,50.57 165.38,166.27 320.32,322.36 496.87,500.56 1413.71,1424.23 1905.96,1914.62l2190.34 -2190.35c140.02,-140.02 25.78,-23.59 62.44,-60.95 319.1,-325.26 378.93,-386.25 933.63,-386.25 253.06,0 517.3,137.71 703.51,323.92 186.21,186.21 323.92,450.48 323.92,703.51 0,577.24 -121.27,690.74 -434.38,983.75 -3.72,3.49 -7.73,7.22 -110.67,110.16l-2727.39 2727.39c-80.52,80.52 -19.36,17.38 -39.76,38.45 -224.9,232.2 -493.6,509.61 -1044.42,424.46 -423.1,-65.39 -612.3,-270.79 -802.41,-477.17 -14.53,-15.76 -29.12,-31.6 -68.86,-71.34l-2715.17 -2715.17c-65.8,-65.8 -34.76,-35.98 -45.27,-46.08zm3793.34 2143.24c7.56,6.22 13.5,10.01 17.25,10.6 27.6,4.26 21.47,-12.13 17.04,-33.56l-34.29 22.97z"/>
  <path class="fil1" d="M587.14 1125.28c0,253.07 213.8,421.71 348.56,556.48l2715.17 2715.17c155.69,155.69 275.85,343.98 545.59,385.67 280.2,43.32 440.46,-160.9 579.61,-300.06l2727.39 -2727.39c272.33,-272.33 373.03,-283.5 373.03,-678.79 0,-181.98 -258.32,-440.3 -440.3,-440.3 -345.64,0 -346.8,41.01 -580.95,275.19l-2213.71 2213.72c-104.08,104.08 -278.1,301.27 -385.26,373.03 -114.06,-76.38 -2367.92,-2355.49 -2647.89,-2635.67 -116.45,-116.54 -259.97,-275.19 -483.11,-275.19 -278.5,0 -538.14,263.18 -538.14,538.14z"/>
 </g>
</svg>
