<?xml version="1.0" encoding="UTF-8"?>
<!DOCTYPE svg PUBLIC "-//W3C//DTD SVG 1.1//EN" "http://www.w3.org/Graphics/SVG/1.1/DTD/svg11.dtd">
<!-- Creator: CorelDRAW 2020 (64-Bit) -->
<svg xmlns="http://www.w3.org/2000/svg" xml:space="preserve" width="78.8359mm" height="45.4388mm" version="1.1" style="shape-rendering:geometricPrecision; text-rendering:geometricPrecision; image-rendering:optimizeQuality; fill-rule:evenodd; clip-rule:evenodd"
viewBox="0 0 7201.9 4150.98"
 xmlns:xlink="http://www.w3.org/1999/xlink"
 xmlns:xodm="http://www.corel.com/coreldraw/odm/2003">
 <defs>
  <style type="text/css">
   <![CDATA[
    .fil0 {fill:#4809D0}
   ]]>
  </style>
 </defs>
 <g id="Layer_x0020_1">
  <metadata id="CorelCorpID_0Corel-Layer"/>
  <path class="fil0" d="M-0 531.68c0,250.03 211.24,416.65 344.38,549.81l2682.59 2682.59c153.82,153.82 272.54,339.85 539.05,381.04 276.84,42.8 435.18,-158.97 572.66,-296.46l2694.67 -2694.67c269.06,-269.06 368.55,-280.1 368.55,-670.65 0,-179.79 -255.22,-435.01 -435.01,-435.01 -341.5,0 -342.64,40.52 -573.98,271.89l-2187.15 2187.16c-102.84,102.84 -274.76,297.66 -380.64,368.55 -112.69,-75.47 -2339.52,-2327.23 -2616.12,-2604.05 -115.05,-115.14 -256.85,-271.89 -477.31,-271.89 -275.16,0 -531.68,260.03 -531.68,531.68z"/>
 </g>
</svg>
